<?xml version="1.0" encoding="iso-8859-1"?>
<!-- Generator: Adobe Illustrator 19.0.0, SVG Export Plug-In . SVG Version: 6.00 Build 0)  -->
<svg version="1.1" id="Capa_1" xmlns="http://www.w3.org/2000/svg" xmlns:xlink="http://www.w3.org/1999/xlink" x="0px" y="0px"
	 viewBox="0 0 512 512" style="enable-background:new 0 0 512 512;" xml:space="preserve">
<g>
	<g>
		<path d="M346,0H166c-24.814,0-45,20.186-45,45v92c0,24.814,20.186,45,45,45h180c24.814,0,45-20.186,45-45V45
			C391,20.186,370.814,0,346,0z"/>
	</g>
</g>
<g>
	<g>
		<path d="M482,362h-30v-15c0-24.814-20.186-45-45-45H271v-30.1c2.824,0,42.336,0,45,0c8.291,0,15-6.609,15-14.9
			c0-8.291-6.709-15-15-15h-15v-30h-90v30h-15c-8.291,0-15,6.709-15,15s6.709,14.9,15,14.9c2.824,0,42.336,0,45,0V302H105
			c-24.814,0-45,20.186-45,45v15H30c-16.569,0-30,13.431-30,30v30c0,16.567,13.431,30,30,30h30v30H45c-8.291,0-15,6.709-15,15
			c0,8.291,6.709,15,15,15h60c8.291,0,15-6.709,15-15c0-8.291-6.709-15-15-15H90v-30h30c16.569,0,30-13.433,30-30v-30
			c0-16.569-13.431-30-30-30H90v-15c0-8.276,6.724-15,15-15h136v30h-30c-16.569,0-30,13.431-30,30v30c0,16.567,13.431,30,30,30h30
			v30h-15c-8.291,0-15,6.709-15,15c0,8.291,6.709,15,15,15h60c8.291,0,15-6.709,15-15c0-8.291-6.709-15-15-15h-15v-30h30
			c16.569,0,30-13.433,30-30v-30c0-16.569-13.431-30-30-30h-30v-30h136c8.276,0,15,6.724,15,15v15h-30c-16.569,0-30,13.431-30,30v30
			c0,16.567,13.431,30,30,30h30v30h-15c-8.291,0-15,6.709-15,15c0,8.291,6.709,15,15,15h60c8.291,0,15-6.709,15-15
			c0-8.291-6.709-15-15-15h-15v-30h30c16.569,0,30-13.433,30-30v-30C512,375.431,498.569,362,482,362z"/>
	</g>
</g>
<g>
</g>
<g>
</g>
<g>
</g>
<g>
</g>
<g>
</g>
<g>
</g>
<g>
</g>
<g>
</g>
<g>
</g>
<g>
</g>
<g>
</g>
<g>
</g>
<g>
</g>
<g>
</g>
<g>
</g>
</svg>
