<?xml version="1.0" encoding="iso-8859-1"?>
<!-- Generator: Adobe Illustrator 18.0.0, SVG Export Plug-In . SVG Version: 6.00 Build 0)  -->
<!DOCTYPE svg PUBLIC "-//W3C//DTD SVG 1.1//EN" "http://www.w3.org/Graphics/SVG/1.1/DTD/svg11.dtd">
<svg version="1.1" id="Capa_1" xmlns="http://www.w3.org/2000/svg" xmlns:xlink="http://www.w3.org/1999/xlink" x="0px" y="0px"
	 viewBox="0 0 495.035 495.035" style="enable-background:new 0 0 495.035 495.035;" xml:space="preserve">
<path d="M423.445,55.012h-41.161v-38.4C382.284,7.43,374.859,0,365.678,0H71.584C62.403,0,54.98,7.43,54.98,16.611v406.807
	c0,9.176,7.423,16.605,16.604,16.605h41.161v38.402c0,9.18,7.43,16.609,16.609,16.609h294.091c9.18,0,16.61-7.43,16.61-16.609
	V71.621C440.055,62.441,432.625,55.012,423.445,55.012z M88.193,406.809V33.215H349.07V339.44h-50.773
	c-9.165,0-16.61,7.428-16.61,16.605v50.764H88.193z M406.839,461.82H145.959v-21.797h152.338c4.584,0,8.736-1.865,11.72-4.863h0.017
	l0.022-0.021l67.351-67.336l0.016-0.016c3-2.998,4.863-7.15,4.863-11.742V88.227h24.556V461.82z"/>
<g>
</g>
<g>
</g>
<g>
</g>
<g>
</g>
<g>
</g>
<g>
</g>
<g>
</g>
<g>
</g>
<g>
</g>
<g>
</g>
<g>
</g>
<g>
</g>
<g>
</g>
<g>
</g>
<g>
</g>
</svg>
