<svg height="512pt" viewBox="0 0 512 512" width="512pt" xmlns="http://www.w3.org/2000/svg"><path d="m170.136719 174.984375h171.726562v145.910156h79.9375c49.734375 0 90.199219-40.464843 90.199219-90.199219 0-44.800781-33.066406-82.257812-76.078125-89.078124-3.707031-21.511719-14.140625-41.261719-30.121094-56.625-19.277343-18.535157-44.628906-28.746094-71.378906-28.746094-11.820313 0-23.589844 2.058594-34.679687 6.015625-23.324219-38.242188-65.347657-62.261719-110.746094-62.261719-71.46875 0-129.609375 58.144531-129.609375 129.613281 0 5.328125.324219 10.652344.976562 15.933594-35.730469 12.410156-60.363281 46.136719-60.363281 85.148437 0 49.734376 40.464844 90.199219 90.199219 90.199219h79.9375zm0 0"/><path d="m311.863281 204.984375h-111.726562v173.960937h-59.589844l115.453125 133.054688 115.453125-133.054688h-59.589844zm0 0"/></svg>