<svg height="435pt" viewBox="-22 0 435 435.6" width="435pt" xmlns="http://www.w3.org/2000/svg"><path d="m259.898438 152.199219-67.296876-67.199219v37.199219c.046876 16.550781 13.449219 29.953125 30 30zm0 0"/><path d="m172.601562 122.199219v-51.300781h-142.300781c-16.550781.050781-29.953125 13.453124-30 30v304.703124c.046875 16.546876 13.449219 29.949219 30 30h213.5c16.546875-.050781 29.949219-13.453124 30-30v-233.402343h-51.300781c-27.5625-.085938-49.867188-22.4375-49.898438-50zm-121.703124 90.699219h101.300781c5.523437 0 10 4.480468 10 10 0 5.523437-4.476563 10-10 10h-101.300781c-5.519532 0-10-4.476563-10-10 0-5.519532 4.480468-10 10-10zm182.300781 161.800781h-182.300781c-5.519532 0-10-4.476563-10-10 0-5.523438 4.480468-10 10-10h182.300781c5.523437 0 10 4.476562 10 10 0 5.523437-4.476563 10-10 10zm10-80.898438c-.015625 5.515625-4.484375 9.984375-10 10h-182.300781c-5.519532 0-10-4.476562-10-10 0-5.523437 4.480468-10 10-10h182.300781c5.515625.015625 9.984375 4.484375 10 10zm0 0"/><path d="m339 81.300781h37.300781l-67.300781-67.199219v37.199219c.046875 16.546875 13.453125 29.949219 30 30zm0 0"/><path d="m339 101.300781c-27.609375-.011719-49.988281-22.390625-50-50v-51.300781h-132.199219c-16.550781.046875-29.953125 13.453125-30 30v20.898438h55.800781c2.695313.039062 5.273438 1.113281 7.199219 3l.097657.101562 101.101562 100.800781c1.882812 1.878907 2.925781 4.4375 2.898438 7.097657v192.703124h66.402343c16.546875-.050781 29.949219-13.453124 30-30v-223.300781zm10.699219 202.5h-30.5c-5.523438 0-10-4.476562-10-10 0-5.523437 4.476562-10 10-10h30.5c5.523437 0 10 4.476563 10 10 0 5.523438-4.476563 10-10 10zm0-70.902343h-30.5c-5.523438 0-10-4.476563-10-10 0-5.519532 4.476562-10 10-10h30.5c5.523437 0 10 4.480468 10 10 0 5.523437-4.476563 10-10 10zm0 0"/></svg>