<?xml version="1.0" standalone="no"?>
<!DOCTYPE svg PUBLIC "-//W3C//DTD SVG 20010904//EN"
 "http://www.w3.org/TR/2001/REC-SVG-20010904/DTD/svg10.dtd">
<svg version="1.0" xmlns="http://www.w3.org/2000/svg"
 width="500.000000pt" height="500.000000pt" viewBox="0 0 500.000000 500.000000"
 preserveAspectRatio="xMidYMid meet">
<metadata>
Created by potrace 1.15, written by Peter Selinger 2001-2017
</metadata>
<g transform="translate(0.000000,500.000000) scale(0.100000,-0.100000)"
fill="#000000" stroke="none">
<path d="M2350 4994 c-590 -75 -1057 -462 -1233 -1021 -40 -127 -59 -263 -58
-423 1 -338 98 -618 306 -885 67 -86 194 -212 262 -260 24 -17 41 -34 40 -38
-1 -5 -50 -28 -107 -51 -310 -124 -581 -306 -825 -550 -211 -212 -349 -403
-476 -661 -152 -309 -236 -633 -255 -982 l-7 -123 194 0 195 0 12 153 c65 813
575 1509 1322 1805 594 236 1244 193 1808 -118 l91 -50 313 0 313 1 -52 48
c-206 193 -485 370 -753 477 -57 23 -106 46 -107 51 -2 5 9 16 25 25 44 26
198 174 262 254 158 192 262 421 305 669 21 119 21 362 0 480 -105 595 -564
1064 -1157 1180 -80 16 -346 28 -418 19z m316 -399 c228 -39 420 -139 580
-299 95 -96 151 -175 210 -300 73 -155 88 -232 89 -441 0 -157 -3 -191 -23
-265 -60 -218 -194 -424 -366 -558 -368 -290 -855 -308 -1251 -47 -79 52 -221
194 -275 274 -59 89 -124 230 -152 331 -20 74 -23 108 -23 265 0 209 16 285
89 441 59 125 115 205 210 300 244 244 584 355 912 299z"/>
<path d="M3850 1623 l-55 -4 3 -274 4 -275 -300 0 c-166 0 -303 -4 -306 -9 -3
-5 -3 -93 1 -195 l6 -186 297 0 297 0 6 -82 c4 -46 7 -190 7 -320 l0 -238 196
0 196 0 -4 320 -3 320 186 0 c102 0 234 3 293 7 l106 6 -2 191 -3 191 -292 -3
-293 -3 0 243 c0 134 -3 260 -6 281 l-7 37 -136 -2 c-75 -1 -161 -3 -191 -5z"/>
</g>
</svg>
