<?xml version="1.0" encoding="iso-8859-1"?>
<!-- Generator: Adobe Illustrator 19.0.0, SVG Export Plug-In . SVG Version: 6.00 Build 0)  -->
<svg version="1.1" id="Layer_1" xmlns="http://www.w3.org/2000/svg" xmlns:xlink="http://www.w3.org/1999/xlink" x="0px" y="0px"
	 viewBox="0 0 512 512" style="enable-background:new 0 0 512 512;" xml:space="preserve">
<g>
	<g>
		<path d="M394.17,121.325L275.473,2.629c-5.615-5.615-15.206-1.638-15.206,6.297v118.287c0,5.146,4.173,9.318,9.318,9.318h118.287
			C395.808,136.531,399.784,126.932,394.17,121.325z"/>
	</g>
</g>
<g>
	<g>
		<path d="M396.798,230.397v-68.266c0-4.71-3.823-8.533-8.533-8.533H251.734c-4.71,0-8.533-3.823-8.533-8.533V8.534
			c0-4.71-3.823-8.533-8.533-8.533H46.937c-4.71,0-8.533,3.823-8.533,8.533v469.326c0,4.71,3.823,8.533,8.533,8.533l177.081,0.008
			c3.251,0,6.221-1.852,7.654-4.779c1.434-2.918,1.084-6.4-0.905-8.977c-19.464-25.164-29.892-55.252-30.225-87.09
			c-0.666-64.34,41.557-122.878,103.388-140.695c27.374-7.885,55.73-7.825,81.978-0.256c4.54,1.271,9.258-1.306,10.564-5.837
			C396.994,236.967,396.798,231.523,396.798,230.397z"/>
	</g>
</g>
<g>
	<g>
		<path d="M403.812,344.46l-18.654-18.654c-1.502-1.502-3.968-1.502-5.478,0l-12.348,12.347c-1.664,1.664-1.664,4.369,0,6.033
			l18.099,18.099c1.664,1.664,4.369,1.664,6.033,0l12.348-12.348c0.99-0.99,1.135-2.133,1.135-2.739
			C404.947,346.602,404.802,345.45,403.812,344.46z"/>
	</g>
</g>
<g>
	<g>
		<path d="M345.599,256.005c-70.578,0-127.998,57.42-127.998,127.998S275.021,512,345.599,512s127.998-57.42,127.998-127.998
			S416.177,256.005,345.599,256.005z M415.887,362.012L340.18,437.71c-1.092,1.092-2.466,1.869-3.968,2.244l-48.281,12.057
			c-0.683,0.171-1.382,0.256-2.065,0.256c-2.236,0-4.42-0.879-6.042-2.5c-2.116-2.125-2.97-5.197-2.244-8.107l12.083-48.255
			c0.375-1.502,1.152-2.867,2.244-3.959l54.305-54.305l21.393-21.401c8.175-8.166,21.452-8.149,29.61,0l18.662,18.662
			c3.951,3.951,6.135,9.216,6.135,14.805C422.022,352.797,419.837,358.053,415.887,362.012z"/>
	</g>
</g>
<g>
	<g>
		<path d="M373.357,374.351l-18.09-18.099c-1.664-1.664-4.369-1.664-6.033,0l-42.751,42.751c-0.546,0.546-0.93,1.229-1.126,1.98
			l-6.033,24.123c-0.785,3.123,2.048,5.956,5.171,5.171l24.14-6.024c0.751-0.188,1.434-0.572,1.98-1.126l42.743-42.743
			C375.021,378.72,375.021,376.015,373.357,374.351z"/>
	</g>
</g>
<g>
</g>
<g>
</g>
<g>
</g>
<g>
</g>
<g>
</g>
<g>
</g>
<g>
</g>
<g>
</g>
<g>
</g>
<g>
</g>
<g>
</g>
<g>
</g>
<g>
</g>
<g>
</g>
<g>
</g>
</svg>
